{
  "accessors": [
    {
      "bufferView": 2,
      "componentType": 5126,
      "count": 32621,
      "max": [
        0.7509742379188538,
        0.5009960532188416,
        0.8404644131660461
      ],
      "min": [
        -0.5884531140327454,
        -0.516866147518158,
        -0.9200082421302795
      ],
      "type": "VEC3"
    },
    {
      "bufferView": 2,
      "byteOffset": 391452,
      "componentType": 5126,
      "count": 32621,
      "max": [
        0.9999896883964539,
        0.9998757243156433,
        0.9999916553497314
      ],
      "min": [
        -0.9999571442604065,
        -0.9999369382858276,
        -0.9999898076057434
      ],
      "type": "VEC3"
    },
    {
      "bufferView": 3,
      "componentType": 5126,
      "count": 32621,
      "max": [
        0.9999855160713196,
        0.9999959468841553,
        0.9999904632568359,
        -1.0
      ],
      "min": [
        -0.9998869895935059,
        -0.9999857544898987,
        -0.9999806880950928,
        -1.0
      ],
      "type": "VEC4"
    },
    {
      "bufferView": 1,
      "componentType": 5126,
      "count": 32621,
      "max": [
        0.9921960234642029,
        0.9975019097328186
      ],
      "min": [
        0.0024981489405035973,
        0.0024981489405035973
      ],
      "type": "VEC2"
    },
    {
      "bufferView": 1,
      "byteOffset": 260968,
      "componentType": 5126,
      "count": 32621,
      "max": [
        0.9921960234642029,
        0.9975019097328186
      ],
      "min": [
        0.0024981489405035973,
        0.0024981489405035973
      ],
      "type": "VEC2"
    },
    {
      "bufferView": 1,
      "byteOffset": 521936,
      "componentType": 5126,
      "count": 32621,
      "max": [
        0.9921960234642029,
        0.9975019097328186
      ],
      "min": [
        0.0024981489405035973,
        0.0024981489405035973
      ],
      "type": "VEC2"
    },
    {
      "bufferView": 1,
      "byteOffset": 782904,
      "componentType": 5126,
      "count": 32621,
      "max": [
        0.9921960234642029,
        0.9975019097328186
      ],
      "min": [
        0.0024981489405035973,
        0.0024981489405035973
      ],
      "type": "VEC2"
    },
    {
      "bufferView": 1,
      "byteOffset": 1043872,
      "componentType": 5126,
      "count": 32621,
      "max": [
        0.9921960234642029,
        0.9975019097328186
      ],
      "min": [
        0.0024981489405035973,
        0.0024981489405035973
      ],
      "type": "VEC2"
    },
    {
      "bufferView": 1,
      "byteOffset": 1304840,
      "componentType": 5126,
      "count": 32621,
      "max": [
        0.9921960234642029,
        0.9975019097328186
      ],
      "min": [
        0.0024981489405035973,
        0.0024981489405035973
      ],
      "type": "VEC2"
    },
    {
      "bufferView": 1,
      "byteOffset": 1565808,
      "componentType": 5126,
      "count": 32621,
      "max": [
        0.9921960234642029,
        0.9975019097328186
      ],
      "min": [
        0.0024981489405035973,
        0.0024981489405035973
      ],
      "type": "VEC2"
    },
    {
      "bufferView": 1,
      "byteOffset": 1826776,
      "componentType": 5126,
      "count": 32621,
      "max": [
        0.9921960234642029,
        0.9975019097328186
      ],
      "min": [
        0.0024981489405035973,
        0.0024981489405035973
      ],
      "type": "VEC2"
    },
    {
      "bufferView": 1,
      "byteOffset": 2087744,
      "componentType": 5126,
      "count": 32621,
      "max": [
        0.9921960234642029,
        0.9975019097328186
      ],
      "min": [
        0.0024981489405035973,
        0.0024981489405035973
      ],
      "type": "VEC2"
    },
    {
      "bufferView": 1,
      "byteOffset": 2348712,
      "componentType": 5126,
      "count": 32621,
      "max": [
        0.9921960234642029,
        0.9975019097328186
      ],
      "min": [
        0.0024981489405035973,
        0.0024981489405035973
      ],
      "type": "VEC2"
    },
    {
      "bufferView": 0,
      "componentType": 5125,
      "count": 150000,
      "type": "SCALAR"
    }
  ],
  "asset": {
    "extras": {
      "author": "vicente betoret ferrero (https://sketchfab.com/deathcow)",
      "license": "CC-BY-4.0 (http://creativecommons.org/licenses/by/4.0/)",
      "source": "https://sketchfab.com/3d-models/balaclava-e3a9e8432f4e4fffaa6734706ac613b4",
      "title": "balaclava"
    },
    "generator": "Sketchfab-15.55.0",
    "version": "2.0"
  },
  "bufferViews": [
    {
      "buffer": 0,
      "byteLength": 600000,
      "name": "floatBufferViews",
      "target": 34963
    },
    {
      "buffer": 0,
      "byteLength": 2609680,
      "byteOffset": 600000,
      "byteStride": 8,
      "name": "floatBufferViews",
      "target": 34962
    },
    {
      "buffer": 0,
      "byteLength": 782904,
      "byteOffset": 3209680,
      "byteStride": 12,
      "name": "floatBufferViews",
      "target": 34962
    },
    {
      "buffer": 0,
      "byteLength": 521936,
      "byteOffset": 3992584,
      "byteStride": 16,
      "name": "floatBufferViews",
      "target": 34962
    }
  ],
  "buffers": [
    {
      "byteLength": 4514520,
      "uri": "scene.bin"
    }
  ],
  "extensionsUsed": [
    "KHR_materials_specular"
  ],
  "images": [
    {
      "uri": "textures/default.003_baseColor.png"
    },
    {
      "uri": "textures/default.003_metallicRoughness.png"
    },
    {
      "uri": "textures/default.003_normal.png"
    }
  ],
  "materials": [
    {
      "doubleSided": true,
      "extensions": {
        "KHR_materials_specular": {
          "specularColorFactor": [
            1.0,
            1.0,
            1.0
          ],
          "specularFactor": 0.0
        }
      },
      "name": "default.003",
      "normalTexture": {
        "index": 2
      },
      "occlusionTexture": {
        "index": 1
      },
      "pbrMetallicRoughness": {
        "baseColorTexture": {
          "index": 0
        },
        "metallicRoughnessTexture": {
          "index": 1
        }
      }
    }
  ],
  "meshes": [
    {
      "name": "model_default.003_0",
      "primitives": [
        {
          "attributes": {
            "NORMAL": 1,
            "POSITION": 0,
            "TANGENT": 2,
            "TEXCOORD_0": 3,
            "TEXCOORD_1": 4,
            "TEXCOORD_2": 5,
            "TEXCOORD_3": 6,
            "TEXCOORD_4": 7,
            "TEXCOORD_5": 8,
            "TEXCOORD_6": 9,
            "TEXCOORD_7": 10,
            "TEXCOORD_8": 11,
            "TEXCOORD_9": 12
          },
          "indices": 13,
          "material": 0,
          "mode": 4
        }
      ]
    }
  ],
  "nodes": [
    {
      "children": [
        1
      ],
      "matrix": [
        1.0,
        0.0,
        0.0,
        0.0,
        0.0,
        2.220446049250313e-16,
        -1.0,
        0.0,
        0.0,
        1.0,
        2.220446049250313e-16,
        0.0,
        0.0,
        0.0,
        0.0,
        1.0
      ],
      "name": "Sketchfab_model"
    },
    {
      "children": [
        2
      ],
      "matrix": [
        1.0,
        0.0,
        0.0,
        0.0,
        0.0,
        0.0,
        1.0,
        0.0,
        0.0,
        -1.0,
        0.0,
        0.0,
        0.0,
        0.0,
        0.0,
        1.0
      ],
      "name": "balaclava.fbx"
    },
    {
      "children": [
        3
      ],
      "name": "RootNode"
    },
    {
      "children": [
        4
      ],
      "matrix": [
        1.0,
        0.0,
        0.0,
        0.0,
        0.0,
        2.220446049250313e-16,
        -1.0,
        0.0,
        0.0,
        1.0,
        2.220446049250313e-16,
        0.0,
        0.0,
        0.0,
        0.0,
        1.0
      ],
      "name": "Scene"
    },
    {
      "children": [
        5
      ],
      "name": "model"
    },
    {
      "mesh": 0,
      "name": "model_default.003_0"
    }
  ],
  "samplers": [
    {
      "magFilter": 9729,
      "minFilter": 9987,
      "wrapS": 10497,
      "wrapT": 10497
    }
  ],
  "scene": 0,
  "scenes": [
    {
      "name": "Sketchfab_Scene",
      "nodes": [
        0
      ]
    }
  ],
  "textures": [
    {
      "sampler": 0,
      "source": 0
    },
    {
      "sampler": 0,
      "source": 1
    },
    {
      "sampler": 0,
      "source": 2
    }
  ]
}
