{
  "accessors": [
    {
      "bufferView": 2,
      "componentType": 5126,
      "count": 1312,
      "max": [
        75.59896087646484,
        50.86511993408203,
        1769.2454833984375
      ],
      "min": [
        -78.23594665527344,
        -164.4787139892578,
        1741.95068359375
      ],
      "type": "VEC3"
    },
    {
      "bufferView": 2,
      "byteOffset": 15744,
      "componentType": 5126,
      "count": 1312,
      "max": [
        0.99891597032547,
        0.9948897361755371,
        0.9767909646034241
      ],
      "min": [
        -0.9859361052513123,
        -0.979752242565155,
        -0.9902904629707336
      ],
      "type": "VEC3"
    },
    {
      "bufferView": 1,
      "componentType": 5126,
      "count": 1312,
      "max": [
        0.0,
        0.0
      ],
      "min": [
        0.0,
        0.0
      ],
      "type": "VEC2"
    },
    {
      "bufferView": 0,
      "componentType": 5125,
      "count": 7872,
      "type": "SCALAR"
    },
    {
      "bufferView": 2,
      "byteOffset": 31488,
      "componentType": 5126,
      "count": 536,
      "max": [
        95.22404479980469,
        69.05020904541016,
        1660.212646484375
      ],
      "min": [
        -92.80206298828125,
        -63.659671783447266,
        1598.7254638671875
      ],
      "type": "VEC3"
    },
    {
      "bufferView": 2,
      "byteOffset": 37920,
      "componentType": 5126,
      "count": 536,
      "max": [
        0.992097795009613,
        0.9972265362739563,
        0.9998700618743896
      ],
      "min": [
        -0.9947071075439453,
        -0.9924695491790771,
        -0.999209463596344
      ],
      "type": "VEC3"
    },
    {
      "bufferView": 1,
      "byteOffset": 10496,
      "componentType": 5126,
      "count": 536,
      "max": [
        0.06807000190019608,
        0.03060000017285347
      ],
      "min": [
        0.0,
        -1.0
      ],
      "type": "VEC2"
    },
    {
      "bufferView": 0,
      "byteOffset": 31488,
      "componentType": 5125,
      "count": 3192,
      "type": "SCALAR"
    },
    {
      "bufferView": 2,
      "byteOffset": 44352,
      "componentType": 5126,
      "count": 659,
      "max": [
        86.40615844726563,
        66.42251586914063,
        1767.9306640625
      ],
      "min": [
        -89.34564971923828,
        -163.64991760253906,
        1601.0169677734375
      ],
      "type": "VEC3"
    },
    {
      "bufferView": 2,
      "byteOffset": 52260,
      "componentType": 5126,
      "count": 659,
      "max": [
        0.9983201026916504,
        0.9919523000717163,
        0.9963341951370239
      ],
      "min": [
        -0.9995644092559814,
        -0.9941455721855164,
        -0.9954190850257874
      ],
      "type": "VEC3"
    },
    {
      "bufferView": 1,
      "byteOffset": 14784,
      "componentType": 5126,
      "count": 659,
      "max": [
        0.57499098777771,
        0.9979999661445618
      ],
      "min": [
        0.0020000000949949026,
        0.0020000000949949026
      ],
      "type": "VEC2"
    },
    {
      "bufferView": 0,
      "byteOffset": 44256,
      "componentType": 5125,
      "count": 2127,
      "type": "SCALAR"
    }
  ],
  "asset": {
    "extras": {
      "author": "andresnempeque (https://sketchfab.com/andresgore8df02c4ce1284184)",
      "license": "CC-BY-4.0 (http://creativecommons.org/licenses/by/4.0/)",
      "source": "https://sketchfab.com/3d-models/mascara-18a16873ea95429c87ff04ab8d617f57",
      "title": "máscara"
    },
    "generator": "Sketchfab-12.68.0",
    "version": "2.0"
  },
  "bufferViews": [
    {
      "buffer": 0,
      "byteLength": 52764,
      "name": "floatBufferViews",
      "target": 34963
    },
    {
      "buffer": 0,
      "byteLength": 20056,
      "byteOffset": 52764,
      "byteStride": 8,
      "name": "floatBufferViews",
      "target": 34962
    },
    {
      "buffer": 0,
      "byteLength": 60168,
      "byteOffset": 72820,
      "byteStride": 12,
      "name": "floatBufferViews",
      "target": 34962
    }
  ],
  "buffers": [
    {
      "byteLength": 132988,
      "uri": "scene.bin"
    }
  ],
  "images": [
    {
      "uri": "textures/Material_25_baseColor.png"
    }
  ],
  "materials": [
    {
      "doubleSided": true,
      "name": "Material_25",
      "pbrMetallicRoughness": {
        "baseColorTexture": {
          "index": 0
        },
        "metallicFactor": 0.0,
        "roughnessFactor": 0.6
      }
    },
    {
      "doubleSided": true,
      "name": "Material_26",
      "pbrMetallicRoughness": {
        "baseColorFactor": [
          0.0823529,
          0.0901961,
          0.027451,
          1.0
        ],
        "metallicFactor": 0.0,
        "roughnessFactor": 0.6
      }
    }
  ],
  "meshes": [
    {
      "name": "Object_0",
      "primitives": [
        {
          "attributes": {
            "NORMAL": 1,
            "POSITION": 0,
            "TEXCOORD_0": 2
          },
          "indices": 3,
          "material": 1,
          "mode": 4
        }
      ]
    },
    {
      "name": "Object_1",
      "primitives": [
        {
          "attributes": {
            "NORMAL": 5,
            "POSITION": 4,
            "TEXCOORD_0": 6
          },
          "indices": 7,
          "material": 1,
          "mode": 4
        }
      ]
    },
    {
      "name": "Object_2",
      "primitives": [
        {
          "attributes": {
            "NORMAL": 9,
            "POSITION": 8,
            "TEXCOORD_0": 10
          },
          "indices": 11,
          "material": 0,
          "mode": 4
        }
      ]
    }
  ],
  "nodes": [
    {
      "children": [
        1
      ],
      "matrix": [
        1.0,
        0.0,
        0.0,
        0.0,
        0.0,
        2.220446049250313e-16,
        -1.0,
        0.0,
        0.0,
        1.0,
        2.220446049250313e-16,
        0.0,
        0.0,
        0.0,
        0.0,
        1.0
      ],
      "name": "Sketchfab_model"
    },
    {
      "children": [
        2,
        4,
        6
      ],
      "name": "fiz.3DS"
    },
    {
      "children": [
        3
      ],
      "matrix": [
        1.0,
        0.0,
        0.0,
        0.0,
        0.0,
        1.0,
        0.0,
        0.0,
        0.0,
        0.0,
        1.0,
        0.0,
        -0.0010000000474974513,
        -0.0010000000474974513,
        -0.0010000000474974513,
        1.0
      ],
      "name": "3DSMeshMatrix"
    },
    {
      "mesh": 0,
      "name": "Object_3"
    },
    {
      "children": [
        5
      ],
      "matrix": [
        1.0,
        0.0,
        0.0,
        0.0,
        0.0,
        1.0,
        0.0,
        0.0,
        0.0,
        0.0,
        1.0,
        0.0,
        -0.0010000000474974513,
        -0.0010000000474974513,
        -0.0010000000474974513,
        1.0
      ],
      "name": "3DSMeshMatrix"
    },
    {
      "mesh": 1,
      "name": "Object_5"
    },
    {
      "children": [
        7
      ],
      "matrix": [
        1.0,
        0.0,
        0.0,
        0.0,
        0.0,
        1.0,
        0.0,
        0.0,
        0.0,
        0.0,
        1.0,
        0.0,
        -0.0010000000474974513,
        -0.0010000000474974513,
        -0.0010000000474974513,
        1.0
      ],
      "name": "3DSMeshMatrix"
    },
    {
      "mesh": 2,
      "name": "Object_7"
    }
  ],
  "samplers": [
    {
      "magFilter": 9729,
      "minFilter": 9987,
      "wrapS": 10497,
      "wrapT": 10497
    }
  ],
  "scene": 0,
  "scenes": [
    {
      "name": "Sketchfab_Scene",
      "nodes": [
        0
      ]
    }
  ],
  "textures": [
    {
      "sampler": 0,
      "source": 0
    }
  ]
}
